<svg width="40" height="40" viewBox="0 0 40 40" fill="none" xmlns="http://www.w3.org/2000/svg">
<circle cx="20" cy="20" r="20" fill="#DDAA00"/>
<g clip-path="url(#clip0)">
<path d="M27.0176 22.6397C25.9895 22.6397 24.9825 22.4792 24.0281 22.1643C23.5624 22.0037 23.0334 22.1274 22.7273 22.4397L20.8352 23.8687C18.6641 22.7099 17.2746 21.3213 16.1317 19.166L17.522 17.3187C17.872 16.9687 17.9975 16.4564 17.8475 15.9765C17.5299 15.016 17.3685 14.0081 17.3685 12.9818C17.3685 12.2564 16.7782 11.666 16.0527 11.666H12.9825C12.2571 11.666 11.6667 12.2564 11.6667 12.9818C11.6667 21.4458 18.5536 28.3327 27.0176 28.3327C27.7431 28.3327 28.3334 27.7423 28.3334 27.0169V23.9555C28.3334 23.23 27.7431 22.6397 27.0176 22.6397Z" fill="white"/>
</g>
<defs>
<clipPath id="clip0">
<rect width="16.6667" height="16.6667" fill="white" transform="translate(11.6667 11.666)"/>
</clipPath>
</defs>
</svg>
